# xmcd
#
# Track frame offsets:
#	150
#	874
#	14042
#	22892
#	36119
#	51694
#	65198
#	77493
#	91951
#	110342
#	122651
#	137951
#	156168
#	173806
#	185688
#	201187
#	210881
#	213971
#	216383
#	220119
#	222329
#	223038
#	225379
#	227647
#	230798
#	234299
#	235762
#	237990
#	242779
#	245116
#	245903
#	246989
#	248522
#	249333
#	250160
#	250776
#	251414
#	252022
#	268218
#	280772
#	291685
#	301666
#	312334
#
# Disc length: 4314
#
# Revision: 1
# Processed by: cddbd v1.5.1PL0 Copyright (c) Steve Scherf et al.
# Submitted via: VisiTrax 2.9.5.180 - For more info visit www.synapsa.com
# Normalized: r0:DSETVAR1
#
DISCID=7910d82b
DTITLE=Various Artist - Country Hotdisc 36 A
DYEAR=1900
DGENRE=Christmas
TTITLE0=? - ?
TTITLE1=Suzy Bogguss - Mr Santa
TTITLE2=Ricochet - Let it snow let it snow
TTITLE3=Narvel Felts - You can't have a white christmas
TTITLE4=Paul Overstreet - Silent night
TTITLE5=Steven McClintock - Christmas needs love to be christmas
TTITLE6=Shakin' Stevens - Blue christmas
TTITLE7=Brant Miller - Cowboy christmas
TTITLE8=Canadian Suite - A letter from home
TTITLE9=Donna Frost - Do you hear what I hear
TTITLE10=Dave and Shayenne - Christmas is coming
TTITLE11=Eddie Stubbs - Christmas party
TTITLE12=Scooter Lee - A chrismas card
TTITLE13=Jeff and The Kids - Come to our house this christmas
TTITLE14=Karen Cruise - Why did the star look like a cross
TTITLE15=Tammy Wynette - One happy christmas
TTITLE16=B Jeff and Patricia Stone - Jingle
TTITLE17=Boomer McLennan - Jingle
TTITLE18=Brendan Patchell - Jingle
TTITLE19=Brushwood - Jingle
TTITLE20=Dave Sheriff - Jingle
TTITLE21=Donna Frost - Jingle
TTITLE22=Glen Mitchell - Jingle
TTITLE23=John Dean Foster - Jingle
TTITLE24=Katy Moffatt - Jingle
TTITLE25=Linda Gail Lewis - Jingle
TTITLE26=Martina McBride - Jingle
TTITLE27=Narvel Felts - Jingle
TTITLE28=Paul Mateki - Jingle
TTITLE29=Boomer McLennan - Radio Liners
TTITLE30=Canadian Suite - Radio Liners
TTITLE31=Canadian Suite - Radio Liners
TTITLE32=Dave and Shayenne - Radio Liners
TTITLE33=Dave and Shayenne - Radio Liners
TTITLE34=Diamond Rio - Radio Liners
TTITLE35=Paul Mateki - Radio Liners
TTITLE36=Wynonna - Radio Liners
TTITLE37=Various Artist - America the beautiful
TTITLE38=Waylon Jennings - The eagle
TTITLE39=Ramsey Kearney - Cattle call
TTITLE40=? - Best album
TTITLE41=? - Best single
TTITLE42=? - Best song
EXTD=
EXTT0=
EXTT1=
EXTT2=
EXTT3=
EXTT4=
EXTT5=
EXTT6=
EXTT7=
EXTT8=
EXTT9=
EXTT10=
EXTT11=
EXTT12=
EXTT13=
EXTT14=
EXTT15=
EXTT16=
EXTT17=
EXTT18=
EXTT19=
EXTT20=
EXTT21=
EXTT22=
EXTT23=
EXTT24=
EXTT25=
EXTT26=
EXTT27=
EXTT28=
EXTT29=
EXTT30=
EXTT31=
EXTT32=
EXTT33=
EXTT34=
EXTT35=
EXTT36=
EXTT37=
EXTT38=
EXTT39=
EXTT40=
EXTT41=
EXTT42=
PLAYORDER=
